<svg width="200" height="200" viewBox="0 0 200 200" fill="none" xmlns="http://www.w3.org/2000/svg">
<path id="Ellipse 3" d="M10 100C4.47716 100 -0.0518494 104.489 0.499435 109.984C2.57845 130.707 11.0913 150.358 24.9701 166.11C41.062 184.373 63.2627 196.14 87.4102 199.204C111.558 202.269 135.994 196.421 156.138 182.756C176.282 169.091 190.75 148.549 196.83 124.979C202.91 101.41 200.185 76.4316 189.165 54.7277C178.145 33.0239 159.588 16.0845 136.971 7.08533C114.355 -1.91388 89.2322 -2.35501 66.3136 5.84465C46.5471 12.9166 29.5905 25.9973 17.746 43.1289C14.6052 47.6717 16.3976 53.7911 21.2313 56.4628C26.0649 59.1344 32.1012 57.3352 35.3547 52.8724C44.7624 39.9675 57.8709 30.1068 73.0509 24.6757C91.3857 18.116 111.484 18.4689 129.577 25.6683C147.67 32.8676 162.516 46.4191 171.332 63.7822C180.148 81.1453 182.328 101.128 177.464 119.983C172.6 138.839 161.025 155.273 144.91 166.205C128.795 177.136 109.246 181.815 89.9282 179.363C70.6102 176.912 52.8496 167.498 39.9761 152.888C29.3176 140.791 22.6151 125.82 20.6241 109.974C19.9355 104.495 15.5228 100 10 100Z" fill="url(#paint0_linear_104_1296)"/>
<defs>
<linearGradient id="paint0_linear_104_1296" x1="100" y1="200" x2="100" y2="0" gradientUnits="userSpaceOnUse">
<stop stop-color="#13E1CD"/>
<stop offset="1" stop-color="#008275" stop-opacity="0.73"/>
</linearGradient>
</defs>
</svg>
