<svg width="200" height="200" viewBox="0 0 200 200" fill="none" xmlns="http://www.w3.org/2000/svg">
<path id="Ellipse 3" d="M10 100C4.47716 100 -0.0518188 104.488 0.499527 109.984C2.19783 126.91 8.19412 143.184 17.992 157.225C29.7041 174.009 46.2842 186.796 65.4939 193.858C84.7035 200.92 105.618 201.918 125.412 196.717C145.207 191.516 162.93 180.366 176.187 164.774C189.444 149.181 197.597 129.896 199.546 109.522C201.494 89.1481 197.145 68.667 187.084 50.8437C177.024 33.0204 161.736 18.7133 143.286 9.85403C127.852 2.44266 110.826 -0.857513 93.8462 0.189438C88.3339 0.529327 84.6325 5.72139 85.521 11.1723C86.4095 16.6232 91.5554 20.2554 97.0746 20.0534C109.993 19.5807 122.887 22.2448 134.629 27.8832C149.389 34.9707 161.619 46.4163 169.667 60.675C177.716 74.9336 181.196 91.3184 179.637 107.617C178.077 123.916 171.555 139.345 160.949 151.819C150.344 164.293 136.166 173.213 120.33 177.374C104.494 181.535 87.7628 180.736 72.3951 175.086C57.0274 169.437 43.7633 159.207 34.3936 145.78C26.9395 135.098 22.2358 122.8 20.6241 109.974C19.9356 104.495 15.5228 100 10 100Z" fill="url(#paint0_linear_104_1286)"/>
<defs>
<linearGradient id="paint0_linear_104_1286" x1="100" y1="200" x2="100" y2="0" gradientUnits="userSpaceOnUse">
<stop stop-color="#D6D6FF"/>
<stop offset="1" stop-color="#8A8AEF"/>
</linearGradient>
</defs>
</svg>
