<svg width="200" height="200" viewBox="0 0 200 200" fill="none" xmlns="http://www.w3.org/2000/svg">
<path id="Ellipse 3" d="M10 100C4.47716 100 -0.0518341 104.488 0.499496 109.984C2.34032 128.332 9.22867 145.885 20.491 160.649C33.7826 178.074 52.4304 190.65 73.5665 196.443C94.7025 202.236 117.156 200.925 137.475 192.713C157.793 184.5 174.851 169.84 186.025 150.987C197.199 132.134 201.871 110.132 199.321 88.3653C196.771 66.5985 187.141 46.2721 171.913 30.5121C156.684 14.752 136.7 4.43103 115.033 1.13643C96.6745 -1.65517 77.9696 0.728882 60.9905 7.92241C55.9052 10.0769 54.1421 16.2046 56.7935 21.0494C59.4449 25.8942 65.506 27.6075 70.6435 25.5808C83.7285 20.4191 98.0038 18.7769 112.027 20.9091C129.36 23.5448 145.347 31.8016 157.53 44.4097C169.713 57.0177 177.417 73.2788 179.457 90.6922C181.497 108.106 177.76 125.707 168.82 140.789C159.881 155.872 146.235 167.6 129.98 174.17C113.725 180.74 95.762 181.789 78.8532 177.154C61.9443 172.52 47.0261 162.459 36.3928 148.519C27.7904 137.242 22.3778 123.931 20.6241 109.974C19.9355 104.494 15.5228 100 10 100Z" fill="url(#paint0_linear_104_1280)"/>
<defs>
<linearGradient id="paint0_linear_104_1280" x1="36.5005" y1="153.5" x2="81.5005" y2="-1.10509e-05" gradientUnits="userSpaceOnUse">
<stop stop-color="#F8365E"/>
<stop offset="1" stop-color="#E30FE8" stop-opacity="0.77"/>
</linearGradient>
</defs>
</svg>
