<svg width="52" height="84" viewBox="0 0 52 84" fill="none" xmlns="http://www.w3.org/2000/svg">
<g id="Group">
<path id="Vector" d="M22.5468 2.82031C20.9531 3.88281 18.0312 4.54688 15.9062 4.41406C12.8515 4.14844 11.9218 4.67969 11.6562 7.20312C11.3906 9.32812 9.79683 10.7891 7.14058 11.7188C3.82027 12.9141 3.28902 13.7109 3.82027 16.5C4.2187 18.7578 3.55464 21.1484 1.96089 23.2734C-0.562547 26.4609 -0.562547 26.4609 2.0937 29.3828C4.08589 31.5078 4.61714 33.2344 3.95308 35.8906C3.28902 38.9453 3.68745 39.6094 7.14058 40.8047C9.79683 41.7344 11.3906 43.1953 11.6562 45.0547C11.9218 47.3125 12.9843 47.9766 16.1718 47.9766C18.5625 47.9766 21.6171 49.1719 23.2109 50.5C26 53.0234 26 53.0234 28.789 50.5C30.3828 49.1719 33.4375 47.9766 35.8281 47.9766C39.0156 47.9766 40.0781 47.3125 40.3437 45.0547C40.6093 43.1953 42.2031 41.7344 44.8593 40.8047C48.3125 39.6094 48.7109 38.9453 48.0468 35.8906C47.3828 33.2344 47.914 31.5078 49.9062 29.3828C52.5625 26.4609 52.5625 26.4609 50.039 23.2734C48.4453 21.1484 47.7812 18.7578 48.1796 16.5C48.7109 13.7109 48.1796 12.9141 44.8593 11.7188C42.2031 10.7891 40.6093 9.32812 40.3437 7.20312C40.0781 4.67969 39.2812 4.14844 35.8281 4.41406C33.3046 4.67969 30.914 3.88281 29.9843 2.82031C27.8593 0.296875 26 0.296875 22.5468 2.82031ZM35.4296 16.6328C43.9296 25.2656 38.0859 39.3438 26 39.3438C13.914 39.3438 8.07027 25.2656 16.5703 16.6328C19.625 13.5781 21.6171 12.7812 26 12.7812C30.3828 12.7812 32.375 13.5781 35.4296 16.6328Z" fill="#D6D6FF"/>
<path id="Vector_2" d="M18.9609 19.1561C15.9062 22.4765 16.039 30.4452 19.0937 33.1015C22.414 36.1561 30.3828 36.0233 33.039 32.9686C36.0937 29.6483 35.9609 21.6796 32.9062 19.0233C29.5859 15.9686 21.6172 16.1015 18.9609 19.1561Z" fill="#D6D6FF"/>
<path id="Vector_3" d="M15.1094 53.1563L11.3906 54.4844V68.0313C11.3906 85.0313 12.7188 86.7578 20.6875 80.5156L26 76.2656L31.3125 80.5156C39.2812 86.7578 40.6094 85.0313 40.6094 68.0313V54.4844L36.7578 53.1563C33.9688 51.9609 32.2422 52.0938 29.5859 53.5547C26.5312 55.0156 25.4688 55.0156 22.4141 53.5547C19.625 52.2266 17.7656 52.0938 15.1094 53.1563Z" fill="#D6D6FF"/>
</g>
</svg>
