<svg width="81" height="74" viewBox="0 0 81 74" fill="none" xmlns="http://www.w3.org/2000/svg">
<g id="Group">
<path id="Vector" d="M12.6484 3.85951C9.85938 6.25013 6.27345 11.8283 3.6172 17.8048C-0.499992 27.3673 -0.632805 27.8986 1.4922 31.0861C2.68751 32.9454 5.7422 35.8673 8.13282 37.5939C13.9766 41.4454 14.1094 44.5001 8.53126 46.0939C2.68751 47.8204 2.5547 49.8126 8.39845 52.6017C15.0391 55.7892 25.2656 56.9845 24.4688 54.4611C24.2031 53.5314 22.4766 52.3361 20.6172 51.9376C18.3594 51.4064 17.2969 50.0783 17.0313 47.422C16.6328 44.3673 17.0313 43.8361 18.625 44.3673C20.0859 44.8986 20.75 44.5001 20.75 42.7736C20.75 41.4454 19.9531 39.9845 18.8906 39.5861C15.9688 38.3908 10.3906 27.2345 11.0547 23.7814C11.7188 20.1954 24.0703 11.297 25.3984 13.5548C25.9297 14.2189 27.3906 14.4845 28.8516 14.0861C30.7109 13.422 31.375 13.9533 31.375 15.9454C31.375 18.3361 31.9063 18.6017 35.7578 17.8048C41.6016 16.7423 41.6016 16.6095 38.6797 11.1642C35.0938 4.65638 30.1797 1.33607 23.1406 0.539196C17.9609 -0.124866 16.6328 0.406384 12.6484 3.85951Z" fill="#D6D6FF"/>
<path id="Vector_2" d="M54.3516 2.2655C50.5 4.12488 45.9844 10.8983 45.9844 14.6171C45.9844 16.6093 50.8984 16.4764 51.6953 14.3514C52.3594 12.4921 69.3594 12.3593 71.2188 14.2186C71.8828 14.8827 72.9453 18.0702 73.7422 21.2577C74.8047 26.3046 74.6719 27.6327 72.0156 31.8827C68.6953 36.9296 64.9766 40.6483 62.3203 41.4452C61.2578 41.8436 61.125 42.6405 61.9219 43.9686C62.9844 45.5624 63.6484 45.6952 65.9062 44.2343C68.2969 42.7733 68.5625 42.9061 68.5625 46.6249C68.5625 49.8124 67.8984 50.7421 64.9766 51.4061C58.8672 52.7343 57.9375 53.1327 57.9375 54.7264C57.9375 56.9843 69.3594 55.6561 75.6016 52.7343C81.5781 49.8124 81.8438 47.5546 76.5312 45.2968C71.6172 43.3046 71.4844 40.2499 75.8672 33.6093C79.0547 28.828 79.0547 28.0311 77.9922 18.9999C76.9297 10.8983 76.1328 8.77332 72.4141 4.78894C67.3672 -0.52356 61.6562 -1.32043 54.3516 2.2655Z" fill="#D6D6FF"/>
<path id="Vector_3" d="M38.1484 20.0625C30.4453 21.9219 27.3906 26.3047 25.9297 37.4609C24.8672 46.625 24.8672 47.4219 28.0547 52.2031C32.4375 58.8438 32.3047 61.8984 27.3906 63.8906C25.2656 64.8203 23.4062 66.2813 23.4062 67.2109C23.4062 70.3984 32.9688 73.8516 42 73.8516C51.0313 73.8516 60.5938 70.3984 60.5938 67.2109C60.5938 66.2813 58.8672 64.8203 56.6094 63.8906C51.6953 61.8984 51.5625 58.8438 55.9453 52.2031C59.1328 47.4219 59.1328 46.625 58.0703 37.3281C57.2734 31.6172 55.9453 26.8359 54.8828 26.0391C53.8203 25.375 52.625 23.3828 52.0938 21.6563C51.0313 18.4688 46.9141 17.9375 38.1484 20.0625ZM51.0313 32.5469C53.1563 33.875 55.5469 46.3594 53.9531 48.3516C47.1797 56.8516 43.9922 59.9063 42 59.9063C40.0078 59.9063 36.6875 56.7188 30.0469 48.3516C28.8516 46.8906 30.3125 34.8047 31.9063 32.2813C32.5703 31.0859 49.0391 31.3516 51.0313 32.5469ZM42 63.8906C43.8594 63.8906 46.1172 63.2266 47.0469 62.2969C48.2422 61.1016 48.6406 61.6328 48.6406 64.9531C48.6406 68.2734 47.9766 69.3359 45.3203 70C43.4609 70.3984 40.5391 70.3984 38.6797 70C36.0234 69.3359 35.3594 68.2734 35.3594 64.9531C35.3594 61.6328 35.7578 61.1016 36.9531 62.2969C37.8828 63.2266 40.1406 63.8906 42 63.8906Z" fill="#D6D6FF"/>
</g>
</svg>
