<svg width="75" height="74" viewBox="0 0 75 74" fill="none" xmlns="http://www.w3.org/2000/svg">
<g id="Group">
<path id="Vector" d="M61.625 3.7422C59.5 5.8672 57.9062 8.92188 57.9062 10.5156C57.9062 12.1094 57.6406 13.4375 57.375 13.4375C57.1094 13.4375 54.0547 11.8438 50.4688 9.71876C44.8906 6.66407 42.5 6.13282 34 6.13282C22.9766 6.13282 17.7969 8.12501 10.3594 15.2969C2.78906 22.3359 0.132812 28.7109 0.132812 40C0.132812 51.2891 2.78906 57.6641 10.3594 64.7031C17.9297 71.875 22.9766 73.8672 34 73.8672C45.2891 73.8672 51.6641 71.2109 58.7031 63.6406C65.875 56.0703 67.8672 51.0234 67.8672 40C67.8672 28.3125 64.4141 19.6797 61.0938 22.8672C59.6328 24.4609 59.6328 25.5234 61.2266 30.0391C68.3984 50.0938 52.3281 70.9453 31.3438 68.9531C16.7344 67.4922 4.78125 54.4766 4.78125 40C4.78125 18.0859 29.8828 3.60938 48.3438 14.7656C51.9297 17.0234 52.4609 17.9531 51.2656 19.4141C50.0703 20.875 48.875 20.875 44.2266 18.6172C36.7891 15.2969 30.5469 15.4297 23.375 19.0156C5.84375 27.9141 5.84375 52.0859 23.375 60.9844C30.8125 64.7031 37.1875 64.7031 44.625 60.8516C51.2656 57.5313 56.0469 51.2891 57.375 44.25C58.5703 38.2734 56.5781 30.0391 53.9219 30.0391C52.4609 30.0391 51.9297 31.8984 51.9297 38.0078C51.9297 43.4531 51.1328 47.3047 49.5391 49.6953C42.1016 61.1172 26.1641 60.9844 18.4609 49.4297C8.76562 34.9531 25.3672 15.6953 41.3047 23C46.3516 25.2578 44.4922 27.3828 37.8516 26.9844C30.4141 26.4531 25.1016 28.8438 22.7109 33.4922C20.1875 38.1406 20.1875 41.8594 22.5781 46.5078C28.8203 58.4609 47.2812 53.1484 47.2812 39.3359C47.2812 34.5547 44.4922 35.75 41.7031 41.7266C39.0469 47.1719 34.5312 49.0313 30.1484 46.7734C24.3047 43.5859 25.5 34.1563 32.1406 32.5625C36.9219 31.3672 37.5859 32.8281 34 36.6797C31.4766 39.3359 31.2109 40.3984 32.4062 41.5938C33.7344 42.9219 37.0547 40.2656 47.6797 29.6406C56.0469 21.2734 62.2891 16.0938 64.0156 16.0938C65.4766 16.0938 68.3984 14.3672 70.3906 12.2422L74.1094 8.39063L70.3906 7.85938C67.3359 7.59376 66.4062 6.66407 65.875 3.7422L65.2109 0.0234451L61.625 3.7422Z" fill="#AAA9FA"/>
</g>
</svg>
