<svg width="86" height="85" viewBox="0 0 86 85" fill="none" xmlns="http://www.w3.org/2000/svg">
<g id="Group">
<path id="Vector" d="M35.18 4.75026C32.46 8.83026 32.46 12.5703 35.18 24.3003C36.03 27.8703 35.18 29.2303 30.08 32.4603L23.79 36.3703L25.15 32.4603C29.4 19.2003 26.51 9.00026 18.69 9.00026C8.49 9.00026 4.75 17.8403 9.51 30.7603C11.21 35.6903 11.21 36.8803 9.17 37.5603C2.71 39.7703 0.5 44.5303 0.5 56.7703C0.5 70.7103 3.56 76.4903 13.08 81.0803C20.73 84.6503 22.09 84.4803 23.28 79.7203C23.79 77.3403 26.68 74.6203 30.42 72.7503C35.52 70.3703 36.37 69.3503 35.35 66.2903C34.67 64.2503 33.65 58.8103 33.31 54.3903C31.95 41.4703 39.94 35.5203 49.63 42.3203C53.03 44.7003 53.37 46.2303 52.69 53.0303C52.18 57.2803 51.33 62.8903 50.65 65.4403C49.63 69.3503 50.14 70.2003 55.75 72.7503C60 74.7903 62.21 77.1703 62.89 80.4003C63.74 84.8203 64.08 84.9903 69.01 83.1203C71.9 82.1003 76.83 78.7003 79.89 75.6403C85.16 70.3703 85.5 69.5203 85.5 57.4503C85.5 44.5303 83.46 39.7703 76.83 37.5603C74.79 36.8803 74.79 35.6903 76.66 30.7603C79.89 21.5803 79.21 14.7803 74.96 11.7203C65.95 5.43026 57.28 11.0403 58.81 22.0903C59.15 25.6603 60.17 30.2503 60.85 32.4603L62.21 36.3703L55.92 32.4603C50.82 29.2303 49.97 27.8703 50.82 24.3003C51.33 21.9203 52.18 16.8203 52.69 13.0803C53.37 7.13026 52.86 5.60026 49.63 3.22026C43.85 -0.689743 38.41 -0.179741 35.18 4.75026Z" fill="#AAA9FA"/>
</g>
</svg>
