<svg width="72" height="72" viewBox="0 0 72 72" fill="none" xmlns="http://www.w3.org/2000/svg">
<g id="quotation-mark-7228450 1">
<g id="layer1">
<g id="g115165">
<path id="path31770-0-9" d="M40.9602 51.8848C40.9602 51.8848 66.8129 41.1141 70.722 26.801C74.8991 11.5064 68.3815 2.09177 57.7904 0.27121C49.6265 -1.13213 41.6555 2.94971 40.1384 11.7756C38.6212 20.6015 47.1506 28.4909 56.3682 26.586C57.3556 36.5685 38.2725 46.5014 38.2725 46.5014L40.9602 51.8848Z" fill="#D6D6FF"/>
<path id="path31770-0-8-6" d="M2.68776 51.8848C2.68776 51.8848 28.5404 41.1141 32.4495 26.801C36.6266 11.5064 30.1091 2.09177 19.518 0.27121C11.354 -1.13213 3.38304 2.94971 1.86591 11.7756C0.348778 20.6015 8.87815 28.4909 18.0957 26.586C19.0831 36.5685 3.8147e-05 46.5014 3.8147e-05 46.5014L2.68776 51.8848Z" fill="#D6D6FF"/>
</g>
</g>
</g>
</svg>
