<svg width="72" height="72" viewBox="0 0 72 72" fill="none" xmlns="http://www.w3.org/2000/svg">
<g id="quotation-mark-7228448 2">
<g id="layer1">
<g id="g115144">
<path id="path31770-0" d="M31.0398 0C31.0398 0 5.18713 10.7706 1.27804 25.0838C-2.89908 40.3783 3.61847 49.793 14.2096 51.6136C22.3735 53.0169 30.3445 48.9351 31.8616 40.1092C33.3788 31.2833 24.8494 23.3939 15.6318 25.2988C14.6444 15.3162 33.7275 5.38331 33.7275 5.38331L31.0398 0Z" fill="#D6D6FF"/>
<path id="path31770-0-8" d="M69.3122 0C69.3122 0 43.4596 10.7706 39.5505 25.0838C35.3734 40.3783 41.8909 49.793 52.482 51.6136C60.646 53.0169 68.617 48.9351 70.1341 40.1092C71.6512 31.2833 63.1218 23.3939 53.9043 25.2988C52.9169 15.3162 72 5.38331 72 5.38331L69.3122 0Z" fill="#D6D6FF"/>
</g>
</g>
</g>
</svg>
